<?xml version="1.0" encoding="UTF-8"?>
<svg version="1.1" xmlns="http://www.w3.org/2000/svg" width="287" height="294">
<path d="M0 0 C0.97670654 0.34780518 0.97670654 0.34780518 1.97314453 0.70263672 C2.69904785 0.95126465 3.42495117 1.19989258 4.17285156 1.45605469 C14.37004151 5.06827617 24.3365534 9.35178931 34.30297852 13.55078125 C49.75108575 20.57183312 49.75108575 20.57183312 66.28564453 22.82763672 C67.47673828 22.79154297 68.66783203 22.75544922 69.89501953 22.71826172 C70.76642578 22.67185547 71.63783203 22.62544922 72.53564453 22.57763672 C72.86937399 29.41291041 72.85948103 34.52350596 69.53564453 40.57763672 C69.02001953 41.58826172 68.50439453 42.59888672 67.97314453 43.64013672 C65.02660359 47.19109631 61.89322821 48.98996322 57.87548828 51.18310547 C55.52496041 52.58400438 54.17246507 53.39869714 52.53564453 55.57763672 C52.06559881 58.13186852 51.76850449 60.49387769 51.58642578 63.06982422 C51.52408249 63.81160919 51.4617392 64.55339417 51.39750671 65.31765747 C51.2677983 66.89240976 51.14466045 68.46771496 51.02758789 70.04345703 C50.85128921 72.41041671 50.65537984 74.77505876 50.45556641 77.14013672 C48.15353527 92.52180565 48.15353527 92.52180565 51.53564453 106.57763672 C60.74227119 106.18586537 67.22592805 100.44358108 73.39501953 94.00732422 C77.47094528 89.38099973 81.21807893 84.5026181 84.97021484 79.61376953 C87.80853056 75.92201141 90.67476024 72.2519135 93.53564453 68.57763672 C94.72974462 67.04255022 95.92375599 65.5073947 97.11767578 63.97216797 C97.69469238 63.23047363 98.27170898 62.4887793 98.86621094 61.72460938 C99.9291149 60.35766327 100.99136183 58.99020583 102.05273438 57.62207031 C125.47133926 27.44855928 125.47133926 27.44855928 133.03564453 25.82763672 C138.04980391 26.90209944 140.47543076 28.43087514 143.53564453 32.57763672 C149.18899698 43.57548864 152.73046263 55.70558424 156.84130859 67.33325195 C160.02280479 76.28075636 163.37307754 85.0398985 167.53564453 93.57763672 C167.86886719 94.26325684 168.20208984 94.94887695 168.54541016 95.65527344 C173.64085477 105.99753557 179.4429079 115.48874068 186.53564453 124.57763672 C187.18919922 125.42068359 187.18919922 125.42068359 187.85595703 126.28076172 C196.72352375 137.58561286 206.65025106 146.39008259 219.33251953 153.30029297 C220.05955078 153.72181641 220.78658203 154.14333984 221.53564453 154.57763672 C221.53564453 154.90763672 221.53564453 155.23763672 221.53564453 155.57763672 C200.9584862 154.90407998 183.67594627 147.39629828 169.50830078 132.43701172 C166.79340578 129.4293902 164.59692852 126.68636637 162.59814453 123.14013672 C160.27875496 120.25847089 159.77322265 120.14850923 156.28564453 119.70263672 C155.04814453 119.66138672 153.81064453 119.62013672 152.53564453 119.57763672 C152.54877602 123.32667747 152.72690541 126.9096135 153.53564453 130.57763672 C156.31830667 133.27157193 156.31830667 133.27157193 159.53564453 135.57763672 C164.12967201 142.72922327 164.04551518 149.89602898 163.93603516 158.11279297 C163.97454093 163.81548537 163.97454093 163.81548537 166.96533203 168.59716797 C167.81353516 169.25072266 168.66173828 169.90427734 169.53564453 170.57763672 C173.0224652 174.58102341 174.26922493 178.5985197 174.97314453 183.82763672 C174.10340038 191.28258655 170.30666225 197.7093494 164.82470703 202.78076172 C150.6217152 213.92986793 150.6217152 213.92986793 142.53564453 215.57763672 C131.06423774 211.94615587 119.39003718 201.64402324 113.66064453 191.14013672 C111.22741183 183.43489982 112.43293803 178.89350872 115.95361328 171.87451172 C117.53564453 169.57763672 117.53564453 169.57763672 120.17236328 167.92138672 C123.37790107 164.74234097 123.10868817 162.53098208 123.18408203 158.15185547 C123.17634766 157.21986328 123.16861328 156.28787109 123.16064453 155.32763672 C123.16064453 148.37986966 123.46325622 142.8985824 126.53564453 136.57763672 C128.32470703 134.87060547 128.32470703 134.87060547 130.16064453 133.76513672 C132.73453881 131.81981452 133.44510504 130.95497182 134.21142578 127.76123047 C134.44417716 125.04116581 134.50235427 122.3074383 134.53564453 119.57763672 C129.25564453 119.57763672 123.97564453 119.57763672 118.53564453 119.57763672 C118.53564453 118.25763672 118.53564453 116.93763672 118.53564453 115.57763672 C131.07564453 115.24763672 143.61564453 114.91763672 156.53564453 114.57763672 C154.78251953 111.33951172 153.02939453 108.10138672 151.22314453 104.76513672 C143.88596154 90.93861848 137.48898008 76.43764335 132.53564453 61.57763672 C131.87564453 61.57763672 131.21564453 61.57763672 130.53564453 61.57763672 C130.11375854 62.67724731 130.11375854 62.67724731 129.68334961 63.79907227 C128.64138959 66.32163066 127.48879688 68.64706196 126.17236328 71.03466797 C125.70435303 71.88786621 125.23634277 72.74106445 124.75415039 73.62011719 C124.24891846 74.53422363 123.74368652 75.44833008 123.22314453 76.39013672 C119.85432273 82.5060334 116.49781359 88.62500656 113.23876953 94.80029297 C104.72896414 110.87677072 95.55984371 125.87189245 83.53564453 139.57763672 C82.96587891 140.23119141 82.39611328 140.88474609 81.80908203 141.55810547 C75.08010332 148.78139304 66.14831312 154.91790412 56.16845703 155.91357422 C48.96319157 155.99381103 43.44924161 155.90059164 37.53564453 151.57763672 C36.84857422 151.09166016 36.16150391 150.60568359 35.45361328 150.10498047 C29.05800622 145.08579348 25.17610354 138.96981123 23.99633789 130.87915039 C22.23108799 115.70140241 24.5226507 101.27067384 27.03564453 86.32763672 C32.009466 60.38467765 32.009466 60.38467765 25.84814453 35.26513672 C20.53281922 29.08786676 16.09476968 25.53519679 8.24658203 22.86279297 C7.59971436 22.63982544 6.95284668 22.41685791 6.28637695 22.18713379 C4.70529711 21.64331824 3.12080244 21.10944799 1.53564453 20.57763672 C1.67663574 21.47144043 1.81762695 22.36524414 1.96289062 23.28613281 C4.33190984 38.44513945 6.69379831 53.580706 7.84814453 68.89013672 C7.92403809 69.88770996 7.99993164 70.8852832 8.078125 71.91308594 C9.76941319 96.98717149 8.62407129 125.40399972 -8.33935547 145.57763672 C-12.19884161 149.61049821 -16.5222033 152.96301265 -21.46435547 155.57763672 C-22.12435547 155.57763672 -22.78435547 155.57763672 -23.46435547 155.57763672 C-22.07394099 151.06392668 -20.25295878 146.99063716 -18.15185547 142.76513672 C-14.25068227 134.61091182 -11.64629332 126.33407086 -9.46435547 117.57763672 C-9.14337891 116.35818359 -8.82240234 115.13873047 -8.49169922 113.88232422 C-1.7575732 83.37516727 -7.88752967 51.00674739 -14.12670898 20.99829102 C-15.6041258 13.79968975 -16.91050929 6.96863783 -16.46435547 -0.42236328 C-11.57490734 -2.86708735 -4.9934673 -1.63097886 0 0 Z M141.53564453 121.57763672 C140.34222701 122.55095933 140.34222701 122.55095933 140.42211914 124.34350586 C140.42735596 125.09237061 140.43259277 125.84123535 140.43798828 126.61279297 C140.44121094 127.42167969 140.44443359 128.23056641 140.44775391 129.06396484 C140.45613281 129.91410156 140.46451172 130.76423828 140.47314453 131.64013672 C140.47765625 132.49414062 140.48216797 133.34814453 140.48681641 134.22802734 C140.4986408 136.34459335 140.51657685 138.46112357 140.53564453 140.57763672 C142.1917911 140.95982439 143.86021477 141.29158774 145.53564453 141.57763672 C147.41198712 139.70129413 146.66810644 137.03681172 146.67236328 134.54443359 C146.66849609 133.75101563 146.66462891 132.95759766 146.66064453 132.14013672 C146.66451172 131.35058594 146.66837891 130.56103516 146.67236328 129.74755859 C146.77696923 125.52892927 146.77696923 125.52892927 145.53564453 121.57763672 C144.21564453 121.57763672 142.89564453 121.57763672 141.53564453 121.57763672 Z M134.53564453 140.57763672 C131.92274677 143.57930473 131.16634209 145.37390983 131.24267578 149.34326172 C131.25234375 150.23271484 131.26201172 151.12216797 131.27197266 152.03857422 C131.29710937 152.95896484 131.32224609 153.87935547 131.34814453 154.82763672 C131.36167969 155.76349609 131.37521484 156.69935547 131.38916016 157.66357422 C131.42444499 159.96884999 131.47374172 162.27294732 131.53564453 164.57763672 C132.23431641 164.78259766 132.93298828 164.98755859 133.65283203 165.19873047 C134.56291016 165.46814453 135.47298828 165.73755859 136.41064453 166.01513672 C137.31556641 166.28197266 138.22048828 166.54880859 139.15283203 166.82373047 C141.53564453 167.57763672 141.53564453 167.57763672 143.53564453 168.57763672 C145.23305078 167.87305299 146.93015916 167.16319598 148.58642578 166.36669922 C150.87021502 165.44219937 153.11384725 165.00280595 155.53564453 164.57763672 C155.61680446 161.51460094 155.67621862 158.45372857 155.72314453 155.39013672 C155.74828125 154.52582031 155.77341797 153.66150391 155.79931641 152.77099609 C155.85591115 147.84725338 155.71592024 144.60932482 152.53564453 140.57763672 C151.87564453 141.07263672 151.21564453 141.56763672 150.53564453 142.07763672 C146.72505853 143.98292972 143.72457633 144.23638003 139.53564453 143.57763672 C136.53564453 142.07763672 136.53564453 142.07763672 134.53564453 140.57763672 Z M138.53564453 181.57763672 C138.03522307 184.49301701 138.03522307 184.49301701 138.53564453 187.57763672 C139.30908203 188.56763672 139.30908203 188.56763672 140.09814453 189.57763672 C141.53564453 191.57763672 141.53564453 191.57763672 141.22314453 194.82763672 C140.99626953 195.73513672 140.76939453 196.64263672 140.53564453 197.57763672 C142.51564453 197.57763672 144.49564453 197.57763672 146.53564453 197.57763672 C146.30876953 196.48451172 146.08189453 195.39138672 145.84814453 194.26513672 C145.74501953 193.04826172 145.64189453 191.83138672 145.53564453 190.57763672 C146.97314453 188.95263672 146.97314453 188.95263672 148.53564453 187.57763672 C148.97435473 184.65290203 148.97880566 183.22022036 147.28564453 180.76513672 C143.85853437 178.43959768 141.73687276 179.44348456 138.53564453 181.57763672 Z " fill="#CC9C43" transform="translate(64.46435546875,77.42236328125)"/>
<path d="M0 0 C8.73259617 6.89081225 13.44661756 15.40394226 14.94921875 26.36328125 C15.78722599 40.37936311 11.39177721 53.1212196 2.1484375 63.6953125 C-5.97258455 71.09977378 -13.37465177 73.30469571 -24.30859375 73.046875 C-32.35794344 72.24815232 -39.18794255 69.51200326 -44.8515625 63.6953125 C-44.8515625 63.0353125 -44.8515625 62.3753125 -44.8515625 61.6953125 C-44.2625415 61.68072998 -43.67352051 61.66614746 -43.06665039 61.65112305 C-40.34852448 61.57577486 -37.63151308 61.47940866 -34.9140625 61.3828125 C-33.98787109 61.36025391 -33.06167969 61.33769531 -32.10742188 61.31445312 C-23.68068311 60.98921058 -16.27540584 59.73302584 -9.9140625 53.8203125 C-9.18316406 53.16289063 -8.45226562 52.50546875 -7.69921875 51.828125 C-3.64879897 47.15258757 -3.40255123 42.44194519 -3.546875 36.4765625 C-4.22034962 30.32894799 -6.7427821 26.29249348 -11.4765625 22.3828125 C-19.23793346 17.08834569 -27.65538856 15.71568026 -36.81640625 17.1640625 C-46.72473076 19.14337108 -57.36350249 22.37177986 -63.67578125 30.76953125 C-78.4301308 54.93529314 -66.50900742 88.62987933 -60.66992188 114.05859375 C-57.81583717 126.50578409 -55.49937051 138.42142293 -55.5390625 151.2578125 C-55.52294922 152.30388672 -55.50683594 153.34996094 -55.49023438 154.42773438 C-55.48350733 165.26501191 -57.26250797 174.63194206 -64.8515625 182.6953125 C-71.01858605 188.6953125 -71.01858605 188.6953125 -73.8515625 188.6953125 C-73.66980469 188.086875 -73.48804687 187.4784375 -73.30078125 186.8515625 C-62.79269596 150.20798303 -73.49317116 123.1613247 -88.83911133 89.84643555 C-97.48554783 71.01608475 -105.70196978 52.20458601 -98.0390625 31.5 C-97.06694516 29.17501936 -95.99668635 26.94005858 -94.8515625 24.6953125 C-94.23667969 23.48875 -94.23667969 23.48875 -93.609375 22.2578125 C-84.96114837 6.62260052 -71.53291933 -1.29483496 -54.8515625 -6.3046875 C-37.30272616 -11.20077096 -15.46171224 -10.22219513 0 0 Z " fill="#CE9F44" transform="translate(110.8515625,8.3046875)"/>
<path d="M0 0 C2.64 0 5.28 0 8 0 C8 2.97 8 5.94 8 9 C9.85625 9.185625 9.85625 9.185625 11.75 9.375 C14.35143933 9.67569176 15.80096033 9.8793699 18.0625 11.25 C20.25394132 12.35135144 20.25394132 12.35135144 23.4375 10.625 C24.613125 10.08875 25.78875 9.5525 27 9 C29.9375 8.8125 29.9375 8.8125 32 9 C32 6.03 32 3.06 32 0 C34.64 0 37.28 0 40 0 C40.01417969 0.66386719 40.02835938 1.32773438 40.04296875 2.01171875 C40.32600055 7.92589571 40.32600055 7.92589571 43.375 12.875 C44.24125 13.57625 45.1075 14.2775 46 15 C49.48682067 19.00338669 50.7335804 23.02088298 51.4375 28.25 C50.56775585 35.70494983 46.77101772 42.13171268 41.2890625 47.203125 C27.08607067 58.35223121 27.08607067 58.35223121 19 60 C7.5285932 56.36851915 -4.14560735 46.06638652 -9.875 35.5625 C-11.94196493 29.01711105 -11.66244525 24.87243759 -8.8125 18.75 C-7.13392712 15.59370912 -6.1822046 14.13251244 -3.25 12 C-0.45512362 9.51566544 -0.5483317 8.38880978 -0.1875 4.75 C-0.10289692 3.16769377 -0.03325647 1.58421738 0 0 Z M15 26 C14.49957854 28.91538029 14.49957854 28.91538029 15 32 C15.7734375 32.99 15.7734375 32.99 16.5625 34 C18 36 18 36 17.6875 39.25 C17.460625 40.1575 17.23375 41.065 17 42 C18.98 42 20.96 42 23 42 C22.773125 40.906875 22.54625 39.81375 22.3125 38.6875 C22.209375 37.470625 22.10625 36.25375 22 35 C23.4375 33.375 23.4375 33.375 25 32 C25.4387102 29.07526531 25.44316113 27.64258364 23.75 25.1875 C20.32288984 22.86196096 18.20122823 23.86584784 15 26 Z " fill="#D3A44A" transform="translate(188,233)"/>
<path d="M0 0 C1.95825873 -0.02694851 3.91662226 -0.04637218 5.875 -0.0625 C6.96554688 -0.07410156 8.05609375 -0.08570313 9.1796875 -0.09765625 C12 0 12 0 14 1 C14.33 1.99 14.66 2.98 15 4 C16.32 4 17.64 4 19 4 C19.66 2.68 20.32 1.36 21 0 C22.93559313 -0.13504138 24.873872 -0.23201129 26.8125 -0.3125 C27.89144531 -0.37050781 28.97039062 -0.42851562 30.08203125 -0.48828125 C33 0 33 0 34.82421875 2.33203125 C36.60304675 6.36837519 37.11405409 9.30540266 37.0625 13.6875 C37.05347656 14.68136719 37.04445312 15.67523438 37.03515625 16.69921875 C37.02355469 17.45847656 37.01195312 18.21773437 37 19 C34.36 19 31.72 19 29 19 C28.96261719 18.32453125 28.92523438 17.6490625 28.88671875 16.953125 C28.82097656 16.06109375 28.75523437 15.1690625 28.6875 14.25 C28.62949219 13.36828125 28.57148438 12.4865625 28.51171875 11.578125 C27.9358819 8.67696226 26.92403852 7.20774393 25 5 C24.505 5.495 24.01 5.99 23.5 6.5 C20.05743189 8.56554086 16.87453431 8.59844292 13 8 C10 6.5 10 6.5 8 5 C5.81005752 8.28491373 5.64722661 9.83095639 5.375 13.6875 C5.30023438 14.68136719 5.22546875 15.67523438 5.1484375 16.69921875 C5.09945312 17.45847656 5.05046875 18.21773437 5 19 C2.36 19 -0.28 19 -3 19 C-3.35368021 11.87399867 -2.95671348 6.52940894 0 0 Z " fill="#B9852F" transform="translate(191,214)"/>
<path d="M0 0 C1.93559313 -0.13504138 3.873872 -0.23201129 5.8125 -0.3125 C6.89144531 -0.37050781 7.97039062 -0.42851562 9.08203125 -0.48828125 C12 0 12 0 13.82421875 2.33203125 C15.60304675 6.36837519 16.11405409 9.30540266 16.0625 13.6875 C16.05347656 14.68136719 16.04445312 15.67523438 16.03515625 16.69921875 C16.02355469 17.45847656 16.01195312 18.21773437 16 19 C13.36 19 10.72 19 8 19 C7.96261719 18.33613281 7.92523438 17.67226562 7.88671875 16.98828125 C7.4800292 9.94467038 7.4800292 9.94467038 4 4 C1.40877257 3.11341534 1.40877257 3.11341534 -1 3 C-0.67 2.01 -0.34 1.02 0 0 Z " fill="#B9852F" transform="translate(212,214)"/>
<path d="M0 0 C10.56 0 21.12 0 32 0 C24.51694845 5.61228866 17.12021851 5.89129408 8 5 C4.92548421 3.97218222 2.75145043 2.76092827 0 1 C0 0.67 0 0.34 0 0 Z " fill="#E6BB58" transform="translate(102,228)"/>
<path d="M0 0 C13.2 0 26.4 0 40 0 C36.75225863 3.24774137 35.92013736 3.35527743 31.55322266 3.4168396 C30.83440918 3.41076691 30.1155957 3.40469421 29.375 3.3984375 C28.2600415 3.40274277 28.2600415 3.40274277 27.12255859 3.40713501 C25.5524011 3.40917476 23.98221814 3.403651 22.41210938 3.39111328 C20.00853668 3.37505703 17.60664539 3.39096352 15.203125 3.41015625 C13.67707962 3.4081738 12.15103529 3.40433009 10.625 3.3984375 C9.90618652 3.40451019 9.18737305 3.41058289 8.44677734 3.4168396 C4.07986264 3.35527743 3.24774137 3.24774137 0 0 Z " fill="#DAAC4C" transform="translate(98,225)"/>
<path d="M0 0 C0 2.97 0 5.94 0 9 C-4.29 8.67 -8.58 8.34 -13 8 C-9.10410633 3.13013291 -6.40767356 0 0 0 Z " fill="#DAAC4A" transform="translate(205,206)"/>
<path d="M0 0 C5.36048242 0.33503015 9.09289348 3.5873412 13 7 C13 7.33 13 7.66 13 8 C6.565 8.495 6.565 8.495 0 9 C0 6.03 0 3.06 0 0 Z " fill="#D9AA4A" transform="translate(211,206)"/>
<path d="M0 0 C2.68860931 -0.10887507 5.37273158 -0.18770594 8.0625 -0.25 C8.81466797 -0.28351563 9.56683594 -0.31703125 10.34179688 -0.3515625 C16.06454718 -0.45065774 19.25548893 0.79918775 24 4 C24 4.33 24 4.66 24 5 C15.62504986 4.61387352 7.99730769 3.54824033 0 1 C0 0.67 0 0.34 0 0 Z " fill="#E6BB58" transform="translate(262,228)"/>
<path d="M0 0 C4.62 0 9.24 0 14 0 C9.577168 3.317124 8.28089024 3.30466674 3 3 C3.5259375 3.86625 3.5259375 3.86625 4.0625 4.75 C5 7 5 7 4.75 9.1875 C4 11 4 11 2 12 C1.66269158 10.56342755 1.33030409 9.12569907 1 7.6875 C0.814375 6.88699219 0.62875 6.08648437 0.4375 5.26171875 C0 3 0 3 0 0 Z " fill="#E2B653" transform="translate(271,264)"/>
<path d="M0 0 C8.25 0 16.5 0 25 0 C20.54535757 2.96976162 17.3898685 3.159673 12.125 3.1875 C10.91070312 3.20167969 9.69640625 3.21585938 8.4453125 3.23046875 C5.15655579 3.01047255 2.94634052 2.41715618 0 1 C0 0.67 0 0.34 0 0 Z " fill="#F5CC65" transform="translate(105,230)"/>
<path d="M0 0 C3.85006348 -0.08953636 7.23647492 0.24729498 11 1 C11.33 0.67 11.66 0.34 12 0 C13.66617115 -0.04063832 15.33388095 -0.042721 17 0 C15.25 3.875 15.25 3.875 13 5 C7.82957619 5.50856628 7.82957619 5.50856628 5 5 C2 2.5 2 2.5 0 0 Z " fill="#D9AB50" transform="translate(199,217)"/>
<path d="M0 0 C5.94 0 11.88 0 18 0 C12.33333333 4.25 12.33333333 4.25 8 5 C5.1339653 3.98085048 2.58754569 2.58930471 0 1 C0 0.67 0 0.34 0 0 Z " fill="#DBAD4D" transform="translate(199,288)"/>
<path d="M0 0 C2.60478883 -0.0809313 5.20706653 -0.14045434 7.8125 -0.1875 C8.55048828 -0.21263672 9.28847656 -0.23777344 10.04882812 -0.26367188 C15.54974762 -0.33834499 15.54974762 -0.33834499 18.01171875 1.51171875 C18.50091797 2.24841797 18.50091797 2.24841797 19 3 C16.20826945 3.02690104 13.41679652 3.04679053 10.625 3.0625 C9.43390625 3.07506836 9.43390625 3.07506836 8.21875 3.08789062 C2.2265625 3.11328125 2.2265625 3.11328125 0 2 C0 1.34 0 0.68 0 0 Z " fill="#DAAD4C" transform="translate(258,225)"/>
<path d="M0 0 C2.97 0 5.94 0 9 0 C5.89973691 3.27742098 3.02901106 5.93104837 -1 8 C-1.66 8 -2.32 8 -3 8 C-1.125 2.25 -1.125 2.25 0 0 Z " fill="#DAAC4C" transform="translate(44,225)"/>
<path d="M0 0 C0 1.65 0 3.3 0 5 C-3.3 5 -6.6 5 -10 5 C-6.61935275 1.61935275 -4.79417227 0 0 0 Z " fill="#EDC35D" transform="translate(205,206)"/>
<path d="M0 0 C4.40114397 0.50298788 6.71195019 2.08772731 10 5 C6.7 5 3.4 5 0 5 C0 3.35 0 1.7 0 0 Z " fill="#EDC35E" transform="translate(211,206)"/>
<path d="M0 0 C3.96 0 7.92 0 12 0 C12.33 0.66 12.66 1.32 13 2 C8.38 2.33 3.76 2.66 -1 3 C-0.67 2.01 -0.34 1.02 0 0 Z " fill="#C79639" transform="translate(212,214)"/>
<path d="M0 0 C1.95825873 -0.02694851 3.91662226 -0.04637218 5.875 -0.0625 C6.96554688 -0.07410156 8.05609375 -0.08570313 9.1796875 -0.09765625 C12 0 12 0 14 1 C14 1.66 14 2.32 14 3 C7.07 2.505 7.07 2.505 0 2 C0 1.34 0 0.68 0 0 Z " fill="#C79639" transform="translate(191,214)"/>
<path d="M0 0 C1.91595968 -0.08133791 3.83291932 -0.13934367 5.75 -0.1875 C7.35101563 -0.23970703 7.35101563 -0.23970703 8.984375 -0.29296875 C12.30027855 0.02917214 13.59016673 0.77148914 16 3 C13.89521396 2.88590318 11.79115423 2.75834639 9.6875 2.625 C8.51574219 2.55539063 7.34398437 2.48578125 6.13671875 2.4140625 C3 2 3 2 0 0 Z " fill="#F5CD65" transform="translate(270,230)"/>
<path d="M0 0 C0.66 0 1.32 0 2 0 C3.38111722 2.2747813 4.05694702 3.50171361 3.75 6.1875 C3 8 3 8 1 9 C0.67 6.03 0.34 3.06 0 0 Z " fill="#B8842F" transform="translate(272,267)"/>
<path d="M0 0 C1.98 0 3.96 0 6 0 C3.47211993 2.79872437 1.79588866 4.45773019 -2 5 C-1.34 3.35 -0.68 1.7 0 0 Z " fill="#EDC35E" transform="translate(43,228)"/>
<path d="M0 0 C0.66 0 1.32 0 2 0 C2 2.97 2 5.94 2 9 C1.01 8.67 0.02 8.34 -1 8 C-0.67 5.36 -0.34 2.72 0 0 Z " fill="#D2A448" transform="translate(269,285)"/>
<path d="M0 0 C0.33 0 0.66 0 1 0 C1 4.62 1 9.24 1 14 C2.32 14.66 3.64 15.32 5 16 C3.35 15.67 1.7 15.34 0 15 C0 10.05 0 5.1 0 0 Z " fill="#9C9C9C" transform="translate(268,204)"/>
<path d="M0 0 C1.98 0 3.96 0 6 0 C4.37660195 1.70884005 2.70680947 3.37446717 1 5 C0.34 5 -0.32 5 -1 5 C-0.67 3.35 -0.34 1.7 0 0 Z " fill="#F2C963" transform="translate(38,192)"/>
<path d="M0 0 C3.3 0 6.6 0 10 0 C8.68 0.99 7.36 1.98 6 3 C2.75 2.1875 2.75 2.1875 0 1 C0 0.67 0 0.34 0 0 Z " fill="#EFC660" transform="translate(203,290)"/>
<path d="M0 0 C1.14926266 0.95421808 2.29430541 1.91352045 3.4375 2.875 C4.07558594 3.40867188 4.71367187 3.94234375 5.37109375 4.4921875 C7 6 7 6 8 8 C4.63820226 6.55922954 2.40843732 4.75249979 0 2 C0 1.34 0 0.68 0 0 Z " fill="#7C7C7C" transform="translate(277,162)"/>
<path d="M0 0 C3.3 0 6.6 0 10 0 C10 0.33 10 0.66 10 1 C6.7 1 3.4 1 0 1 C0 0.67 0 0.34 0 0 Z " fill="#828282" transform="translate(81,249)"/>
<path d="M0 0 C2.97 0 5.94 0 9 0 C9 0.33 9 0.66 9 1 C6.03 1 3.06 1 0 1 C0 0.67 0 0.34 0 0 Z " fill="#878787" transform="translate(101,249)"/>
<path d="M0 0 C1.98 0 3.96 0 6 0 C6 0.33 6 0.66 6 1 C4.02 1 2.04 1 0 1 C0 0.67 0 0.34 0 0 Z " fill="#787878" transform="translate(29,273)"/>
<path d="M0 0 C2.475 0.495 2.475 0.495 5 1 C4.01 1.33 3.02 1.66 2 2 C1.34 1.34 0.68 0.68 0 0 Z " fill="#7D7D7D" transform="translate(279,223)"/>
<path d="M0 0 C1.32 0.33 2.64 0.66 4 1 C3.67 1.66 3.34 2.32 3 3 C2.01 2.01 1.02 1.02 0 0 Z " fill="#898989" transform="translate(283,221)"/>
<path d="M0 0 C0.33 0 0.66 0 1 0 C1 1.98 1 3.96 1 6 C0.67 6 0.34 6 0 6 C0 4.02 0 2.04 0 0 Z " fill="#454545" transform="translate(18,146)"/>
<path d="M0 0 C1.65 0 3.3 0 5 0 C5 0.33 5 0.66 5 1 C3.35 1 1.7 1 0 1 C0 0.67 0 0.34 0 0 Z " fill="#7B7B7B" transform="translate(36,272)"/>
<path d="M0 0 C1.65 0 3.3 0 5 0 C5 0.33 5 0.66 5 1 C3.35 1 1.7 1 0 1 C0 0.67 0 0.34 0 0 Z " fill="#7E7E7E" transform="translate(69,251)"/>
<path d="M0 0 C1.65 0 3.3 0 5 0 C5 0.33 5 0.66 5 1 C3.35 1 1.7 1 0 1 C0 0.67 0 0.34 0 0 Z " fill="#888888" transform="translate(75,250)"/>
<path d="M0 0 C0.33 0 0.66 0 1 0 C1 1.65 1 3.3 1 5 C0.67 5 0.34 5 0 5 C0 3.35 0 1.7 0 0 Z " fill="#898989" transform="translate(270,146)"/>
<path d="M0 0 C4 1 4 1 4 1 Z " fill="#959595" transform="translate(0,277)"/>
<path d="M0 0 C4 1 4 1 4 1 Z " fill="#787878" transform="translate(14,267)"/>
<path d="M0 0 C4 1 4 1 4 1 Z " fill="#808080" transform="translate(65,252)"/>
<path d="M0 0 C0.99 0 1.98 0 3 0 C2.67 0.66 2.34 1.32 2 2 C1.34 1.34 0.68 0.68 0 0 Z " fill="#787878" transform="translate(284,225)"/>
<path d="M0 0 C0.99 0.495 0.99 0.495 2 1 C1.67 1.66 1.34 2.32 1 3 C0.67 2.01 0.34 1.02 0 0 Z " fill="#737373" transform="translate(271,210)"/>
<path d="M0 0 C0.99 0.495 0.99 0.495 2 1 C1.67 1.66 1.34 2.32 1 3 C0.67 2.01 0.34 1.02 0 0 Z " fill="#6F6F6F" transform="translate(274,158)"/>
<path d="M0 0 C1 4 1 4 1 4 Z " fill="#898989" transform="translate(269,137)"/>
<path d="M0 0 C0 3 0 3 0 3 Z " fill="#8D8D8D" transform="translate(273,123)"/>
<path d="M0 0 C1 4 1 4 1 4 Z " fill="#6B6B6B" transform="translate(286,120)"/>
<path d="M0 0 C3 1 3 1 3 1 Z " fill="#999999" transform="translate(146,270)"/>
<path d="M0 0 C3 1 3 1 3 1 Z " fill="#8E8E8E" transform="translate(142,269)"/>
<path d="M0 0 C3 1 3 1 3 1 Z " fill="#787878" transform="translate(11,268)"/>
<path d="M0 0 C3 1 3 1 3 1 Z " fill="#7D7D7D" transform="translate(18,266)"/>
<path d="M0 0 C3 1 3 1 3 1 Z " fill="#616161" transform="translate(21,265)"/>
<path d="M0 0 C3 1 3 1 3 1 Z " fill="#9F9F9F" transform="translate(25,264)"/>
<path d="M0 0 C3 1 3 1 3 1 Z " fill="#898989" transform="translate(28,263)"/>
<path d="M0 0 C3 1 3 1 3 1 Z " fill="#787878" transform="translate(31,262)"/>
<path d="M0 0 C3 1 3 1 3 1 Z " fill="#787878" transform="translate(34,261)"/>
<path d="M0 0 C3 1 3 1 3 1 Z " fill="#616161" transform="translate(61,253)"/>
<path d="M0 0 C3 1 3 1 3 1 Z " fill="#565656" transform="translate(118,251)"/>
<path d="" fill="#616161" transform="translate(0,0)"/>
<path d="" fill="#676767" transform="translate(0,0)"/>
<path d="" fill="#7E7E7E" transform="translate(0,0)"/>
<path d="" fill="#838383" transform="translate(0,0)"/>
<path d="" fill="#C7C7C7" transform="translate(0,0)"/>
<path d="M0 0 C0.99 0.495 0.99 0.495 2 1 C1.01 1.495 1.01 1.495 0 2 C0 1.34 0 0.68 0 0 Z " fill="#8E8E8E" transform="translate(278,116)"/>
<path d="" fill="#454545" transform="translate(0,0)"/>
<path d="" fill="#1B1B1B" transform="translate(0,0)"/>
<path d="M0 0 C2 1 2 1 2 1 Z " fill="#BBBBBB" transform="translate(42,271)"/>
<path d="M0 0 C2 1 2 1 2 1 Z " fill="#676767" transform="translate(0,271)"/>
<path d="M0 0 C2 1 2 1 2 1 Z " fill="#4E4E4E" transform="translate(162,270)"/>
<path d="M0 0 C2 1 2 1 2 1 Z " fill="#808080" transform="translate(160,269)"/>
<path d="M0 0 C2 1 2 1 2 1 Z " fill="#C4C4C4" transform="translate(9,269)"/>
<path d="M0 0 C2 1 2 1 2 1 Z " fill="#676767" transform="translate(157,267)"/>
<path d="M0 0 C2 1 2 1 2 1 Z " fill="#898989" transform="translate(38,260)"/>
<path d="M0 0 C2 1 2 1 2 1 Z " fill="#787878" transform="translate(277,222)"/>
<path d="M0 0 C2 1 2 1 2 1 Z " fill="#919191" transform="translate(275,221)"/>
<path d="M0 0 C2 1 2 1 2 1 Z " fill="#A2A2A2" transform="translate(273,220)"/>
<path d="" fill="#787878" transform="translate(0,0)"/>
<path d="" fill="#6F6F6F" transform="translate(0,0)"/>
<path d="" fill="#454545" transform="translate(0,0)"/>
<path d="" fill="#808080" transform="translate(0,0)"/>
<path d="" fill="#353535" transform="translate(0,0)"/>
<path d="" fill="#353535" transform="translate(0,0)"/>
<path d="" fill="#242424" transform="translate(0,0)"/>
<path d="" fill="#131313" transform="translate(0,0)"/>
<path d="" fill="#131313" transform="translate(0,0)"/>
<path d="" fill="#131313" transform="translate(0,0)"/>
<path d="" fill="#ABABAB" transform="translate(0,0)"/>
<path d="" fill="#898989" transform="translate(0,0)"/>
<path d="" fill="#565656" transform="translate(0,0)"/>
<path d="" fill="#242424" transform="translate(0,0)"/>
<path d="" fill="#454545" transform="translate(0,0)"/>
<path d="" fill="#242424" transform="translate(0,0)"/>
<path d="" fill="#787878" transform="translate(0,0)"/>
<path d="" fill="#454545" transform="translate(0,0)"/>
<path d="" fill="#CCCCCC" transform="translate(0,0)"/>
<path d="" fill="#242424" transform="translate(0,0)"/>
<path d="" fill="#242424" transform="translate(0,0)"/>
<path d="" fill="#242424" transform="translate(0,0)"/>
<path d="" fill="#787878" transform="translate(0,0)"/>
<path d="" fill="#565656" transform="translate(0,0)"/>
<path d="" fill="#787878" transform="translate(0,0)"/>
<path d="" fill="#565656" transform="translate(0,0)"/>
<path d="" fill="#454545" transform="translate(0,0)"/>
<path d="" fill="#454545" transform="translate(0,0)"/>
<path d="" fill="#676767" transform="translate(0,0)"/>
<path d="" fill="#9A9A9A" transform="translate(0,0)"/>
<path d="" fill="#CCCCCC" transform="translate(0,0)"/>
<path d="" fill="#CCCCCC" transform="translate(0,0)"/>
<path d="" fill="#242424" transform="translate(0,0)"/>
</svg>
